<?xml version="1.0" encoding="UTF-8" standalone="no"?>
<!-- Generator: Adobe Illustrator 24.0.2, SVG Export Plug-In . SVG Version: 6.00 Build 0)  -->

<svg
   xmlns:dc="http://purl.org/dc/elements/1.1/"
   xmlns:cc="http://creativecommons.org/ns#"
   xmlns:rdf="http://www.w3.org/1999/02/22-rdf-syntax-ns#"
   xmlns:svg="http://www.w3.org/2000/svg"
   xmlns="http://www.w3.org/2000/svg"
   xmlns:sodipodi="http://sodipodi.sourceforge.net/DTD/sodipodi-0.dtd"
   xmlns:inkscape="http://www.inkscape.org/namespaces/inkscape"
   version="1.1"
   id="Livello_1"
   x="0px"
   y="0px"
   viewBox="0 0 277.60001 277.60001"
   xml:space="preserve"
   sodipodi:docname="LOGO UNITO_VERTICALE_COLORE.svg"
   width="277.60001"
   height="277.60001"
   inkscape:version="0.92.4 (5da689c313, 2019-01-14)"><metadata
   id="metadata30"><rdf:RDF><cc:Work
       rdf:about=""><dc:format>image/svg+xml</dc:format><dc:type
         rdf:resource="http://purl.org/dc/dcmitype/StillImage" /></cc:Work></rdf:RDF></metadata><defs
   id="defs28" /><sodipodi:namedview
   pagecolor="#ffffff"
   bordercolor="#666666"
   borderopacity="1"
   objecttolerance="10"
   gridtolerance="10"
   guidetolerance="10"
   inkscape:pageopacity="0"
   inkscape:pageshadow="2"
   inkscape:window-width="1920"
   inkscape:window-height="1027"
   id="namedview26"
   showgrid="false"
   inkscape:zoom="1.6007405"
   inkscape:cx="170.4083"
   inkscape:cy="113.64589"
   inkscape:window-x="1072"
   inkscape:window-y="843"
   inkscape:window-maximized="1"
   inkscape:current-layer="Livello_1" />
<style
   type="text/css"
   id="style2">
	.st0{fill-rule:evenodd;clip-rule:evenodd;fill:#D8223A;}
</style>
<title
   id="title4">LOGO UNITO_VERTICALE_COLORE</title>
<g
   id="Page-1">
	<g
   id="LOGO-UNITO_VERTICALE_COLORE">
		<path
   id="Fill-24"
   class="st0"
   d="m 19.9,139.1 c -0.2,-0.4 -0.5,-0.7 -0.8,-0.9 -0.4,-0.2 -0.7,-0.3 -1.2,-0.3 -0.4,0 -0.8,0.1 -1.2,0.3 -0.3,0.2 -0.6,0.5 -0.8,0.9 -0.2,0.4 -0.3,0.8 -0.3,1.3 v 3.1 l 4.6,-0.1 v -3.1 c 0,-0.5 -0.1,-0.9 -0.3,-1.2"
   inkscape:connector-curvature="0"
   style="clip-rule:evenodd;fill:#d8223a;fill-rule:evenodd" />
		<path
   id="Fill-25"
   class="st0"
   d="m 36.3,75.8 c -0.5,-0.1 -0.8,-0.2 -1.1,-0.3 -0.3,-0.1 -0.6,-0.3 -0.9,-0.4 l -0.1,0.1 c 0.3,0.2 0.6,0.4 0.8,0.7 0.2,0.2 0.5,0.5 0.7,0.9 l 3.2,4.5 2.8,-4.6 -5.4,-0.9"
   inkscape:connector-curvature="0"
   style="clip-rule:evenodd;fill:#d8223a;fill-rule:evenodd" />
		<path
   id="Fill-26"
   class="st0"
   d="m 255.2,114.6 c 0.3,0.3 0.6,0.5 1,0.7 0.4,0.1 0.8,0.2 1.2,0.1 0.4,-0.1 0.8,-0.3 1.1,-0.6 0.3,-0.3 0.5,-0.6 0.6,-1 0.1,-0.4 0.1,-0.8 0,-1.3 l -0.7,-3 -4.5,1 0.7,3 c 0.2,0.4 0.4,0.8 0.6,1.1"
   inkscape:connector-curvature="0"
   style="clip-rule:evenodd;fill:#d8223a;fill-rule:evenodd" />
		<path
   id="Fill-27"
   class="st0"
   d="m 240.1,73.9 c 0.3,-0.4 0.5,-0.7 0.7,-0.9 0.2,-0.2 0.5,-0.5 0.8,-0.7 l -0.1,-0.1 c -0.3,0.2 -0.6,0.4 -0.9,0.5 -0.3,0.1 -0.7,0.2 -1.1,0.3 l -5.4,0.9 3,4.6 3,-4.6"
   inkscape:connector-curvature="0"
   style="clip-rule:evenodd;fill:#d8223a;fill-rule:evenodd" />
		<path
   id="Fill-28"
   class="st0"
   d="m 159,17.9 c -0.8,-0.6 -1.6,-1 -2.6,-1.1 l -3.6,-0.5 -1.6,11.2 3.6,0.5 c 1,0.1 1.9,0 2.8,-0.3 0.9,-0.4 1.6,-1 2.2,-1.7 0.6,-0.8 1,-1.7 1.1,-2.7 0.1,-1 0,-2 -0.3,-2.9 -0.3,-1.1 -0.8,-1.9 -1.6,-2.5"
   inkscape:connector-curvature="0"
   style="clip-rule:evenodd;fill:#d8223a;fill-rule:evenodd" />
		<path
   id="Fill-29"
   class="st0"
   d="m 149.8,253.1 c -0.3,-0.9 -0.8,-1.5 -1.4,-1.9 -0.6,-0.4 -1.2,-0.6 -1.9,-0.6 -0.7,0.1 -1.3,0.3 -1.8,0.8 -0.5,0.5 -0.8,1.2 -1.1,2.1 -0.2,0.9 -0.3,1.9 -0.2,3.1 0.1,1.2 0.3,2.2 0.6,3.1 0.3,0.9 0.8,1.5 1.4,1.9 0.6,0.4 1.2,0.6 1.9,0.6 0.7,-0.1 1.3,-0.3 1.8,-0.8 0.5,-0.5 0.9,-1.2 1.1,-2.1 0.2,-0.9 0.3,-1.9 0.2,-3.1 0,-1.2 -0.2,-2.3 -0.6,-3.1"
   inkscape:connector-curvature="0"
   style="clip-rule:evenodd;fill:#d8223a;fill-rule:evenodd" />
		<path
   id="Fill-30"
   class="st0"
   d="m 129,252.6 -4,4.7 c -0.1,0.1 -0.3,0.3 -0.4,0.4 -0.2,0.1 -0.3,0.2 -0.4,0.2 l 4.7,0.5 0.6,-6.7 c 0,0.2 -0.1,0.3 -0.2,0.5 -0.1,0.1 -0.2,0.3 -0.3,0.4"
   inkscape:connector-curvature="0"
   style="clip-rule:evenodd;fill:#d8223a;fill-rule:evenodd" />
		<path
   id="Fill-31"
   class="st0"
   d="m 166.2,249.1 c 0,0.2 -0.1,0.4 -0.1,0.5 l -2.2,5.8 c -0.1,0.2 -0.2,0.3 -0.3,0.5 -0.1,0.2 -0.2,0.3 -0.3,0.4 l 4.6,-1.1 -1.6,-6.5 c -0.1,0.1 -0.1,0.2 -0.1,0.4"
   inkscape:connector-curvature="0"
   style="clip-rule:evenodd;fill:#d8223a;fill-rule:evenodd" />
		<path
   id="Fill-32"
   class="st0"
   d="m 167.6,170.4 c -1.8,-2.5 -7.5,-12.4 -5.6,-18.7 1.6,-5.2 10.1,-6.1 15.8,-4.8 -8,-4.9 -18.3,-2.2 -19.5,5.2 -1,6.2 2.8,14.5 4.7,17.4 1.4,0.5 3.4,0.6 4.6,0.9"
   inkscape:connector-curvature="0"
   style="clip-rule:evenodd;fill:#d8223a;fill-rule:evenodd" />
		<path
   id="Fill-33"
   class="st0"
   d="m 185.7,140.3 c -0.2,-0.1 -1.2,0.5 -0.5,1.4 7.9,10 9,26.2 6.5,32.9 13.2,-9.6 9.3,-30.5 -6,-34.3"
   inkscape:connector-curvature="0"
   style="clip-rule:evenodd;fill:#d8223a;fill-rule:evenodd" />
		<path
   id="Fill-34"
   class="st0"
   d="m 161.4,180.9 c 2.3,-0.1 5.9,-1.6 7.3,-3.1 -2.5,0 -9.1,-0.3 -9.8,0 -2.3,0.6 -3.8,1.6 -6.3,3 0.9,-0.2 5.6,0.3 8.8,0.1"
   inkscape:connector-curvature="0"
   style="clip-rule:evenodd;fill:#d8223a;fill-rule:evenodd" />
		<path
   id="Fill-35"
   class="st0"
   d="m 112.5,115.4 c 0.3,-0.7 -0.2,-0.9 -0.3,-1.3 -0.1,-0.4 0.2,-0.7 -0.4,-0.9 -0.4,-0.2 -1,0.8 -1,1.9 0.1,0.9 1.3,1.2 1.7,0.3"
   inkscape:connector-curvature="0"
   style="clip-rule:evenodd;fill:#d8223a;fill-rule:evenodd" />
		<path
   id="Fill-36"
   class="st0"
   d="m 111.4,173.2 c 3.8,-0.2 5.6,-2.9 9.1,-3.9 -4,0.5 -10.3,0.5 -11.6,0.7 -1.1,0.2 -6.6,2.4 -8.5,3.1 1.7,0 9.6,0.2 11,0.1"
   inkscape:connector-curvature="0"
   style="clip-rule:evenodd;fill:#d8223a;fill-rule:evenodd" />
		<path
   id="Fill-37"
   class="st0"
   d="m 111.9,166.4 c -0.4,-1.9 -0.6,-2.6 -0.9,-3.9 -8,-3.7 -5.5,-15.8 1.8,-17.3 -14.2,0.1 -12.3,20.3 -0.9,21.2"
   inkscape:connector-curvature="0"
   style="clip-rule:evenodd;fill:#d8223a;fill-rule:evenodd" />
		<path
   id="Fill-38"
   class="st0"
   d="m 103.1,124.9 c 0.3,-0.7 0.1,-1.7 0.2,-2.2 0.2,-1.1 1,-2.3 0.3,-2.6 -0.7,-0.3 -0.7,1.1 -1.4,1.7 -0.6,0.5 -3,2.4 -1.6,4.1 0.5,0.7 2.1,0 2.5,-1"
   inkscape:connector-curvature="0"
   style="clip-rule:evenodd;fill:#d8223a;fill-rule:evenodd" />
		<path
   id="Fill-39"
   class="st0"
   d="m 138.7,64.2 c -0.3,-0.1 -1.2,0.2 -0.7,0.5 0.4,0.3 0.7,1.5 1.5,1.6 0.4,0 0.1,-0.5 0.4,-0.5 0.3,0 0.7,0.8 0.9,0.5 0.3,-0.3 -0.9,-1.9 -2.1,-2.1"
   inkscape:connector-curvature="0"
   style="clip-rule:evenodd;fill:#d8223a;fill-rule:evenodd" />
		<path
   id="Fill-40"
   class="st0"
   d="m 264.9,143.3 c -0.2,0.2 -0.4,0.5 -0.8,0.7 l -11.7,6.9 v 0 c 0.7,-0.3 1.5,-0.4 2.3,-0.3 l 10,0.7 -0.2,3.2 -17.3,-1.1 0.2,-2.4 c 0,-0.4 0.3,-0.8 0.8,-1.1 l 12.7,-7.5 v -0.1 c -0.7,0.2 -1.4,0.3 -2.1,0.3 l -10.7,-0.7 0.2,-3.2 17.3,1.1 -0.2,2.6 c -0.3,0.3 -0.4,0.6 -0.5,0.9 z m -5,32 -3.1,-0.8 1.9,-7.7 -3.7,-0.9 -1.6,6.2 -2.9,-0.7 1.5,-6.2 -4,-1 -1.9,7.7 -3.1,-0.8 2.7,-10.8 16.8,4.2 z m -3.9,11.1 c -0.2,0.4 -0.4,0.6 -0.6,0.8 -0.2,0.2 -0.6,0.3 -1,0.4 l -13.4,2.3 v 0 c 0.8,0 1.5,0.2 2.2,0.5 l 9.1,4.1 -1.3,3 -15.8,-7.1 1,-2.2 c 0.2,-0.4 0.5,-0.6 1.1,-0.7 l 14.5,-2.5 v -0.1 c -0.7,0 -1.4,-0.2 -2.1,-0.5 l -9.8,-4.4 1.3,-3 15.8,7 z m -11.6,21.2 c -0.1,0.9 -0.5,1.8 -1.1,2.7 -0.5,0.7 -1.1,1.3 -1.9,1.9 -0.8,0.6 -1.6,0.9 -2.4,1 l -0.5,-1.1 c -0.2,-0.3 -0.2,-0.6 -0.2,-0.9 0,-0.3 0.1,-0.6 0.3,-0.8 0.1,-0.2 0.3,-0.4 0.5,-0.5 0.3,-0.2 0.7,-0.4 1,-0.6 0.3,-0.2 0.5,-0.5 0.7,-0.7 0.4,-0.5 0.5,-1 0.5,-1.5 0,-0.5 -0.3,-0.9 -0.7,-1.2 -0.3,-0.2 -0.8,-0.3 -1.3,-0.1 -0.5,0.2 -1.2,0.5 -1.9,1.1 -1.4,1.1 -2.7,1.8 -4,2 -1.2,0.2 -2.4,-0.1 -3.5,-0.8 -0.9,-0.6 -1.5,-1.3 -1.9,-2.2 -0.4,-0.9 -0.5,-1.8 -0.4,-2.9 0.1,-1 0.6,-2 1.2,-3 0.6,-0.9 1.4,-1.7 2.4,-2.2 1,-0.6 2,-0.9 3.1,-1.1 l 0.6,1.3 c 0.1,0.2 0.1,0.5 0.1,0.7 0,0.3 -0.1,0.5 -0.3,0.7 -0.2,0.3 -0.5,0.5 -0.8,0.7 -0.5,0.2 -1.1,0.5 -1.5,0.8 -0.5,0.3 -0.9,0.7 -1.1,1 -0.5,0.7 -0.7,1.4 -0.7,2 0,0.6 0.4,1.2 1,1.6 0.4,0.3 0.9,0.3 1.5,0.2 0.6,-0.2 1.3,-0.5 2.1,-1.1 1.5,-1.1 2.8,-1.7 3.9,-1.9 1.1,-0.2 2.2,0 3.1,0.6 0.8,0.5 1.3,1.2 1.7,2 0.5,0.5 0.6,1.4 0.5,2.3 z m -11.9,16 -13,-11.5 2.2,-2.4 13,11.5 z m -8.3,7.8 c -0.3,0.8 -0.9,1.6 -1.7,2.3 -0.6,0.6 -1.4,1 -2.3,1.4 -0.9,0.3 -1.7,0.5 -2.6,0.4 l -0.3,-1.2 c -0.1,-0.4 -0.1,-0.7 0,-1 0.1,-0.3 0.2,-0.5 0.5,-0.7 0.2,-0.2 0.4,-0.3 0.6,-0.4 0.4,-0.1 0.7,-0.2 1.1,-0.3 0.3,-0.2 0.6,-0.3 0.8,-0.5 0.5,-0.4 0.8,-0.9 0.8,-1.4 0.1,-0.5 0,-0.9 -0.4,-1.3 -0.3,-0.3 -0.7,-0.5 -1.2,-0.4 -0.5,0.1 -1.3,0.3 -2.1,0.6 -1.6,0.8 -3.1,1.1 -4.3,1 -1.2,-0.1 -2.3,-0.7 -3.2,-1.7 -0.7,-0.8 -1.1,-1.7 -1.3,-2.6 -0.2,-1 0,-1.9 0.4,-2.9 0.4,-1 1,-1.8 1.9,-2.6 0.8,-0.7 1.8,-1.3 2.9,-1.6 1.1,-0.3 2.2,-0.4 3.3,-0.3 l 0.3,1.4 c 0,0.2 0,0.5 -0.1,0.7 -0.1,0.2 -0.2,0.4 -0.4,0.6 -0.3,0.2 -0.6,0.4 -1,0.4 -0.6,0.1 -1.1,0.2 -1.7,0.4 -0.6,0.2 -1,0.4 -1.3,0.7 -0.6,0.6 -1,1.1 -1.1,1.8 -0.1,0.6 0.1,1.2 0.5,1.8 0.3,0.4 0.8,0.6 1.4,0.6 0.6,0 1.4,-0.2 2.3,-0.6 1.7,-0.7 3.1,-1 4.3,-0.9 1.2,0.1 2.1,0.5 2.9,1.4 0.6,0.7 1,1.5 1.2,2.3 0.3,0.9 0.2,1.8 -0.2,2.6 z M 168,205.7 c 0.2,0.7 1.2,5 1.4,6.1 -1.2,-0.5 -2.8,-0.6 -3.6,-0.7 -0.3,-1.2 -1.1,-4.8 -1.2,-5.3 -7.7,0 -13.3,0 -13.3,0 V 196 c 0,0 50,0 54.9,0 6.5,0 6.2,9.8 0.4,9.8 -2.7,-0.1 -23.3,-0.1 -38.6,-0.1 z m 4.3,55.1 -3,0.7 -0.8,-3.4 -7.6,1.8 -0.8,-2.3 c 0,-0.1 -0.1,-0.3 -0.1,-0.5 0,-0.2 0,-0.4 0.1,-0.5 l 4.1,-10.9 c 0.1,-0.3 0.2,-0.5 0.4,-0.7 0.2,-0.2 0.4,-0.3 0.5,-0.4 l 2.9,-0.7 2.5,10.5 2.2,-0.5 0.7,3 -2.2,0.5 z m -19.2,-0.1 c -0.4,1.4 -1.1,2.4 -2.1,3.2 -0.9,0.8 -2.1,1.2 -3.4,1.3 -1.4,0.1 -2.6,-0.2 -3.6,-0.8 -1,-0.6 -1.9,-1.6 -2.5,-2.9 -0.6,-1.3 -1,-2.9 -1.1,-4.7 -0.1,-1.8 0,-3.4 0.5,-4.8 0.4,-1.4 1.1,-2.4 2.1,-3.2 0.9,-0.8 2.1,-1.2 3.4,-1.3 1.4,-0.1 2.6,0.2 3.6,0.8 1,0.6 1.9,1.6 2.5,2.9 0.6,1.3 1,2.9 1.1,4.7 0.1,1.9 -0.1,3.5 -0.5,4.8 z m -41.8,-36.3 v -9.8 h -3.4 l 1.4,-6.4 c -16.3,0 -38.6,0 -38.6,0 v -9.8 h -4 l 13.4,-22 c 1.6,-0.1 2,-0.1 4.1,-0.2 -1.6,2.6 -13.7,22.3 -13.5,22.2 0,0 50,0 54.9,0 6.5,0 6.2,9.8 0.4,9.8 -1.3,0 -6.5,0 -13.3,0 l -1.4,6.4 c 0,0 50,0 54.9,0 6.5,0 6.2,9.8 0.4,9.8 -4.3,0 -55.3,0 -55.3,0 z m 22.7,37.6 -2.3,-0.2 -0.3,3.4 -3.1,-0.3 0.3,-3.4 -7.8,-0.8 v -2.5 c 0,-0.1 0,-0.3 0.1,-0.5 0.1,-0.2 0.2,-0.3 0.3,-0.5 l 7.5,-8.9 c 0.2,-0.2 0.4,-0.4 0.6,-0.5 0.2,-0.1 0.5,-0.2 0.6,-0.2 l 3,0.3 -1,10.7 2.3,0.2 z m -24.1,0 -3.1,-0.8 3.4,-12.8 c -0.2,0.3 -0.4,0.4 -0.6,0.6 l -1.1,0.6 c -0.4,0.2 -0.8,0.3 -1.2,0.2 -0.4,-0.1 -0.6,-0.3 -0.8,-0.7 l -0.7,-1.3 5.5,-3.3 2.9,0.8 z M 68.2,226.2 c -0.3,1.2 -0.9,2.3 -1.8,3.3 l -7.1,7.8 -2.4,-2.2 7.1,-7.8 c 0.5,-0.6 0.8,-1.1 1,-1.8 0.1,-0.6 0.1,-1.3 -0.1,-1.9 -0.2,-0.6 -0.6,-1.2 -1.2,-1.7 -0.6,-0.5 -1.2,-0.8 -1.8,-1 -0.6,-0.2 -1.3,-0.1 -1.9,0.1 -0.6,0.2 -1.2,0.6 -1.7,1.1 l -7.1,7.8 -2.4,-2.2 7.1,-7.8 c 0.9,-1 2,-1.7 3.1,-2.1 1.2,-0.4 2.3,-0.4 3.5,-0.2 1.2,0.3 2.3,0.9 3.4,1.8 1,0.9 1.8,2 2.2,3.1 0.3,1.4 0.4,2.5 0.1,3.7 z m -27.6,-7.7 c -0.2,-0.3 -0.4,-0.6 -0.4,-0.9 0,-0.3 0,-0.7 0.2,-1.1 l 4.4,-12.8 v 0 c -0.4,0.7 -0.9,1.3 -1.5,1.7 l -8,6 -1.9,-2.6 13.9,-10.4 1.5,1.9 c 0.3,0.3 0.3,0.8 0.1,1.3 l -4.9,14 v 0 c 0.4,-0.6 0.9,-1.1 1.5,-1.6 l 8.6,-6.5 2,2.6 -13.9,10.4 z m -13.8,-21.1 15.2,-8.2 1.6,2.9 -15.2,8.2 z m -4.3,-8.6 c -0.1,-0.4 -0.2,-0.7 -0.1,-1.1 0.1,-0.3 0.3,-0.7 0.6,-0.9 l 8,-7.6 c 0.5,-0.5 1.2,-0.9 2.1,-1.3 v -0.1 c -0.9,0.3 -1.7,0.4 -2.4,0.3 l -11,-0.5 c -0.4,0 -0.7,-0.1 -1,-0.4 -0.3,-0.2 -0.5,-0.5 -0.6,-0.9 l -0.8,-2.1 18.8,1 1,2.7 -13.7,13 z m -9.1,-33.1 3.1,-0.6 1.4,7.8 3.8,-0.7 -1.2,-6.3 3,-0.5 1.2,6.3 4.1,-0.7 -1.4,-7.8 3.1,-0.6 2,11 -17,3.1 z m -0.9,-15.4 c 0,-1 0.2,-2 0.7,-2.8 0.4,-0.9 1.1,-1.5 1.9,-2 0.8,-0.5 1.8,-0.8 2.8,-0.8 0.9,0 1.6,0.2 2.3,0.6 0.7,0.4 1.3,0.9 1.7,1.5 0.4,0.6 0.6,1.2 0.6,1.9 v 0.4 0 c 0,-0.4 0.1,-0.8 0.3,-1.1 0.2,-0.3 0.4,-0.5 0.7,-0.7 l 6.2,-4.6 v 2.7 c 0,0.4 -0.1,0.7 -0.2,1 -0.1,0.3 -0.4,0.6 -0.8,0.8 l -5.4,4 v 2.3 l 6.4,-0.1 v 3.3 L 12.4,147 Z m 1.1,-20.1 c 0.1,-0.8 0.4,-1.7 0.9,-2.5 0.5,-0.8 1,-1.5 1.7,-1.9 l 1,0.8 c 0.3,0.2 0.5,0.5 0.6,0.8 0.1,0.3 0.2,0.6 0.1,0.8 0,0.3 -0.1,0.5 -0.3,0.7 -0.2,0.3 -0.4,0.6 -0.6,1 -0.1,0.3 -0.2,0.7 -0.3,0.9 -0.1,0.6 0,1.1 0.2,1.6 0.2,0.4 0.6,0.7 1.1,0.8 0.4,0.1 0.8,-0.1 1.2,-0.5 0.4,-0.4 0.8,-1 1.2,-1.9 0.8,-1.6 1.7,-2.8 2.7,-3.5 1,-0.7 2.2,-1 3.5,-0.8 1,0.2 1.9,0.5 2.7,1.2 0.7,0.6 1.3,1.4 1.6,2.4 0.3,1 0.4,2.1 0.2,3.2 -0.2,1.1 -0.6,2.1 -1.2,3 -0.6,0.9 -1.4,1.7 -2.3,2.4 l -1.1,-0.9 c -0.2,-0.2 -0.3,-0.4 -0.4,-0.6 C 26,127 26,126.7 26,126.4 c 0.1,-0.4 0.2,-0.7 0.5,-1 0.4,-0.4 0.7,-0.9 1,-1.4 0.3,-0.5 0.5,-1 0.5,-1.4 0.1,-0.8 0,-1.5 -0.3,-2.1 -0.3,-0.6 -0.8,-0.9 -1.5,-1 -0.5,-0.1 -1,0.1 -1.4,0.5 -0.4,0.4 -0.9,1 -1.4,1.9 -0.9,1.6 -1.8,2.8 -2.7,3.5 -0.9,0.7 -2,0.9 -3.1,0.8 -0.9,-0.1 -1.7,-0.5 -2.4,-1 -0.7,-0.6 -1.1,-1.3 -1.4,-2.1 -0.3,-0.9 -0.4,-1.8 -0.2,-2.9 z m 3.9,-16.7 16.7,4.6 -0.9,3.1 -16.7,-4.6 z m 7.4,-19.7 2.9,1.2 -2,4.7 13.1,5.5 -1.3,3 -13.1,-5.5 -2,4.7 -2.9,-1.2 z m 6.7,-11.9 18.7,2.6 -1.2,2 c -0.2,0.3 -0.5,0.6 -0.8,0.7 -0.3,0.2 -0.7,0.2 -1.1,0.1 l -2.6,-0.4 -4.1,6.7 1.5,2.1 c 0.2,0.3 0.4,0.7 0.4,1.1 0,0.4 -0.1,0.7 -0.3,1.1 l -1.2,2 L 30.1,74.3 Z M 42,58.2 c 0.2,-0.9 0.7,-1.7 1.4,-2.5 0.6,-0.6 1.3,-1.2 2.1,-1.6 0.8,-0.5 1.7,-0.7 2.5,-0.7 l 0.4,1.2 c 0.1,0.3 0.1,0.7 0.1,1 -0.1,0.3 -0.2,0.5 -0.4,0.8 -0.2,0.2 -0.4,0.3 -0.6,0.4 -0.4,0.1 -0.7,0.3 -1,0.5 -0.3,0.2 -0.6,0.4 -0.7,0.6 -0.4,0.5 -0.6,1 -0.7,1.5 0,0.5 0.1,0.9 0.5,1.3 0.3,0.3 0.7,0.4 1.3,0.3 0.5,-0.1 1.2,-0.4 2,-0.9 1.5,-1 2.9,-1.5 4.2,-1.5 1.3,0 2.4,0.4 3.4,1.2 0.8,0.7 1.3,1.5 1.6,2.4 0.3,0.9 0.3,1.9 0,2.9 -0.3,1 -0.8,1.9 -1.6,2.8 -0.7,0.8 -1.6,1.5 -2.7,1.9 -1,0.4 -2.1,0.7 -3.2,0.7 L 50.2,69 c -0.1,-0.2 -0.1,-0.5 0,-0.7 0.1,-0.2 0.2,-0.5 0.3,-0.7 0.2,-0.3 0.5,-0.5 0.9,-0.6 0.6,-0.1 1.1,-0.3 1.6,-0.6 0.5,-0.3 0.9,-0.6 1.2,-0.9 0.5,-0.6 0.8,-1.3 0.9,-1.9 0,-0.6 -0.2,-1.2 -0.8,-1.7 -0.4,-0.3 -0.9,-0.5 -1.4,-0.4 -0.6,0.1 -1.3,0.4 -2.2,0.9 -1.6,0.9 -3,1.4 -4.1,1.5 -1.2,0.1 -2.2,-0.3 -3,-1 C 42.9,62.3 42.4,61.6 42.2,60.7 41.8,59.9 41.8,59 42,58.2 Z m 20.8,113.1 c -0.4,0 -1,0.1 -1,-0.6 1.3,-0.1 2.8,-1.8 3.9,-2.6 1.3,-0.9 4.5,-1.3 6.5,-1.9 1.9,-0.6 8.5,-4.6 12.5,-5 -0.1,1.9 2.9,8.7 4.5,10.4 -2.9,1.2 -12.3,1.1 -13.2,1.3 1.2,-1.5 -1.5,-3.8 -3.4,0.1 -0.5,1.1 -0.6,2.3 -2.3,4 -1.6,0 -9.6,-0.1 -12.2,-0.1 1.1,-3.5 5.2,-5.4 4.7,-5.6 z m 7.8,-36.7 c 0.2,-0.1 0.5,-0.3 0.6,-0.2 1.9,0.8 6.5,2.5 10.4,2.6 -0.4,1.3 -0.6,3.4 -0.6,4.2 -4.7,-0.6 -11.6,-5.5 -10.4,-6.6 z m 33.7,59.1 c -2.3,0.9 -5.9,0.6 -6.6,-0.1 0.9,-0.8 2.8,-2.5 2.6,-3.2 -1.3,-0.2 -4.2,0.9 -4.9,1.2 -0.7,-1.5 0,-3.4 1.7,-4.6 1.4,0.6 3.2,1.3 4.1,1.2 0.4,-1.2 -0.1,-2.7 -0.2,-3.2 0.6,-0.3 4.9,-0.7 6.3,0.1 -0.6,0.5 -2.5,2.1 -2.5,3.2 1,0 3.5,-0.6 4.8,-1.2 0.9,1.4 0.1,3.4 -1.5,4.7 -1.1,-0.7 -3.2,-1.2 -4.3,-1.1 -0.4,1 0.1,2 0.5,3 z m 27.9,-12.8 c 0,0 -1.2,14.8 -1.2,15.9 -1,-0.9 -2.1,-1.4 -3.2,-1.7 0.1,-1.2 1.1,-14.1 1.1,-14.1 z m 75,12.1 c -1.6,-0.4 -2.8,-0.4 -4.1,-0.3 -1,-1.5 -6.7,-10.9 -7.6,-12.4 0.9,-0.5 2.7,-2 2.7,-2 1,1.6 8.1,13.4 9,14.7 z M 90.4,117.1 c 2.6,-1.9 11.7,-5.4 15.1,-6.3 1.8,-0.5 4.3,-1.8 6.1,-2.4 1.1,-0.3 2.3,0 2.9,0.7 0.2,0.2 0,0.9 0.3,1.1 0.3,0.2 3.7,2.6 3.5,3.5 -0.4,2.1 -1,2.3 -1.4,3.1 -1,2 -1.9,4.3 -3.9,7.8 -4.9,14.5 -13.5,6.4 -15.6,3.8 -1.3,2 -3.9,10.7 -5.6,13.7 5.5,-1.8 6.3,-5.8 6.3,-8.2 0.7,0.7 4.7,3.1 8.5,2.3 -2.4,3.3 -14.7,12.5 -7.6,26.4 0.2,-4.1 -0.3,-7.4 1.8,-13.5 2.2,-6.6 11.1,-10.8 13,-18.2 0,0 0.5,0.2 1.5,0.5 3.4,1.2 8.3,6.3 9.8,6.4 1.9,0.2 42.8,0.1 45.9,0.1 3.7,0.1 10.1,-3.6 17.2,-0.8 20.7,8.4 17.8,36.6 0.8,42 1,-1.9 1.9,-3.6 2.4,-4.9 -3.4,2.2 -4.2,1.8 -7,2.9 -0.7,0.3 -1.6,1.4 -1.3,3.3 0.4,2.3 1,4.7 -0.3,6.5 -1.1,1.3 -20.7,-0.5 -22.5,0.6 -2.4,1.5 -3.1,2.7 -6.9,2.8 0.3,-0.7 0.4,-2.3 -1.3,-2.1 -3.1,0.3 -1.2,4.7 -3.7,5.6 -0.6,0.2 -1,0 -1.4,0.1 -1.2,0.5 -1.3,2 -1.5,3 -0.7,0.1 -11.2,0.1 -12.4,0 1.2,-3.6 3.6,-5.6 4.3,-5.9 -0.5,-0.2 -0.8,0 -0.9,-0.9 3.4,-0.4 3.5,-2.4 5.5,-3.7 1.2,-0.8 2.8,-1.7 4.5,-2.7 1.6,-1 4.3,-2.5 5.8,-3.4 -17.1,-2.1 -15.7,-14.3 -12.5,-21.5 6.3,-1 6.7,-8.1 6.2,-9.8 -0.5,-1.7 -0.6,-4.5 -0.7,-7.8 -2.7,7.4 -5.2,7.3 -9.1,16.7 -4.5,10.8 -0.5,19.1 4.9,22.4 l -9.3,0.1 c 0.5,-7.7 -1.7,-9.5 -2.8,-11.1 -1.2,-1.8 0.1,-13.5 -1.8,-16.2 -0.7,-1 -4.3,-2.8 -5.7,-2.8 5.5,4.7 2.2,15 4.3,20.1 0.9,2.2 3,2.8 2.6,9.9 -2.3,0.2 -26,0.2 -27.3,0.3 2.1,-1.7 -1.3,-4.8 -3.7,0 -0.5,1 -0.8,1.3 -2.1,2.3 -1.3,-0.1 -10.6,0.1 -11.7,0 0.2,-1.4 3.5,-4.4 5,-5.4 -0.3,-0.3 -1.2,0.1 -1,-1 0.5,0 1.3,-0.2 2.7,-0.9 1.3,-0.7 1.2,-2.4 5.2,-2.9 -4.5,-1.8 -7.6,-8.8 -8.3,-13.4 -2,-3.1 -7,-11.2 -6.6,-18.5 9.4,0.1 11.8,-10.2 13,-13.1 1.1,-2.7 -3,-6 -4.8,-1.2 -1.3,3.5 -3.6,9.4 -7.7,10 0.9,-1.6 8.3,-15.5 9.3,-19.4 z m -5,-16 c 3.2,-0.3 12.9,0.2 12.1,9 -3.9,1.6 -5.2,2.2 -5.2,2.2 2.3,-7.7 -3.5,-10 -7.3,-10.4 -1.3,-0.1 -1.1,-0.7 0.4,-0.8 z m 4.3,-29.6 c 2.1,1.4 8.1,4 13.4,3.9 0,-0.5 0,-1.1 0.1,-1.7 -4.2,-0.6 -10.5,-4.3 -11.6,-5.2 -1.1,-0.9 -1,-1.9 -0.3,-3.6 2.2,1.9 6.2,4.6 12.3,6.2 0.1,-0.4 0.4,-1.4 0.5,-1.7 -4.3,-1.8 -8.1,-5 -10,-7.4 -1.2,-1.6 0.2,-3 0.7,-3.8 0.9,2.4 6.4,7.4 10.5,8.8 0.3,-0.5 0.5,-0.8 0.9,-1.4 -4.3,-2.4 -7.3,-7.8 -8,-9.3 -0.7,-1.5 0.6,-2.8 1.6,-3.7 1,3.3 2.9,7.4 8.3,10.9 0.5,-0.6 0.8,-0.6 1.2,-1.1 -3.4,-3.1 -5,-9 -5.3,-10.8 -0.3,-2.1 1,-2.7 2.5,-3.4 0.2,6.2 2.6,12.4 9.6,15.3 2.7,1.1 2.3,4.7 -0.7,7.1 -4.2,3.3 -2.7,10.8 4.6,11.3 3.8,0.3 6.5,-3.1 12.4,-4.5 -0.7,0.7 -1.1,1.5 -2.3,2.8 0.4,0.2 1.2,0.5 1.9,0.5 -3.6,6.1 -2.2,12.7 -1.9,14.2 -0.5,-1.1 -1,-1.3 -1.4,-1.4 -0.1,5.8 -2.1,11.6 -3.6,13.9 -0.6,-0.8 -1,-1.4 -2,-2.2 1.4,-2.5 3,-7.9 2.9,-13 -0.2,-0.1 -0.9,-0.3 -1.8,-0.3 -0.5,3.8 -2.4,8.3 -4,10.5 -0.3,0.4 -1.7,0.4 -3.4,0 1.7,-2.4 3.9,-6.5 4.6,-10.5 -0.7,0.1 -1.2,0 -2,0.1 -0.4,1.5 -3.2,6 -5.7,8.6 -1,1 -2.2,1.5 -4.9,0.9 4.1,-3.3 7,-8.1 7.8,-9.8 -0.5,-0.1 -0.8,-0.2 -1.7,-0.4 -2.8,3.8 -6.9,6.8 -9.7,8.2 -1.8,0.9 -3.2,0.5 -5,-0.8 7,-2.3 11.4,-7.5 12,-8.4 -0.5,-0.2 -0.8,-0.4 -1.5,-0.9 -3.4,2.9 -7.9,4.8 -12,5.7 -2,0.4 -3.2,-1.4 -3.7,-2.4 6.8,-0.3 11.7,-3.7 13.5,-5.1 -0.3,-0.3 -0.8,-0.8 -1.2,-1.2 -2.8,1.6 -9,2.9 -13,2.6 -1.8,-0.1 -2.2,-1.9 -2.7,-3 6.2,1 11.8,-0.8 14,-1.9 -0.3,-0.5 -0.7,-1.2 -0.9,-1.5 -4.5,1.2 -11,0.3 -13.1,-0.3 -2,-0.6 -2,-1.9 -2,-3.4 2,0.8 9.4,2.3 14.2,1.1 -0.1,-0.3 -0.4,-1.6 -0.4,-1.8 -6.1,0.1 -11.8,-2.6 -13,-3.1 -1.3,-0.6 -1,-3 -0.7,-3.6 z M 89.8,24.6 C 90,23.8 90.3,23 91,22.3 c 0.6,-0.7 1.4,-1.2 2.4,-1.6 0.8,-0.3 1.7,-0.5 2.6,-0.5 1,0 1.8,0.2 2.5,0.5 L 98.3,22 c -0.1,0.4 -0.2,0.7 -0.4,0.9 -0.2,0.2 -0.4,0.4 -0.7,0.5 -0.2,0.1 -0.5,0.1 -0.7,0.1 -0.4,-0.1 -0.7,-0.1 -1.1,0 -0.4,0 -0.7,0.1 -1,0.2 -0.6,0.2 -1,0.6 -1.3,1 -0.3,0.4 -0.3,0.9 -0.1,1.4 0.2,0.4 0.5,0.7 1,0.8 0.5,0.1 1.3,0.2 2.2,0.2 1.8,-0.1 3.3,0.1 4.4,0.6 1.1,0.5 1.9,1.4 2.4,2.7 0.4,1 0.5,1.9 0.3,2.9 -0.2,0.9 -0.6,1.8 -1.3,2.6 -0.7,0.8 -1.6,1.4 -2.7,1.8 -1,0.4 -2.1,0.6 -3.2,0.5 -1.1,-0.1 -2.2,-0.4 -3.2,-0.9 l 0.2,-1.4 c 0,-0.2 0.1,-0.5 0.3,-0.7 0.2,-0.2 0.4,-0.3 0.6,-0.4 0.3,-0.1 0.7,-0.2 1.1,-0.1 0.6,0.1 1.1,0.2 1.7,0.2 0.6,0 1.1,-0.1 1.5,-0.2 0.8,-0.3 1.3,-0.7 1.7,-1.3 0.3,-0.5 0.4,-1.1 0.1,-1.8 -0.2,-0.5 -0.5,-0.8 -1.1,-1 -0.6,-0.2 -1.4,-0.3 -2.4,-0.3 -1.8,0 -3.3,-0.2 -4.3,-0.6 -1.1,-0.5 -1.8,-1.2 -2.2,-2.3 -0.4,-1.1 -0.5,-2 -0.3,-2.8 z m 28.5,-10.6 0.7,3 -4.9,1.1 3,13.9 -3.2,0.7 -3,-13.9 -4.9,1.1 -0.7,-3 z m -4.9,33 c -0.1,-0.4 -0.3,-0.8 -0.4,-1.2 1,-0.3 2,-0.5 3,-0.8 -0.5,0.5 -1.5,1.7 -2.6,2 z m 6.1,-0.5 c -1.9,2.4 -1.4,4.6 -2.8,5.7 0,0 0,0 -0.1,0 -0.8,-0.8 -1.5,-1.8 -2.1,-2.8 2.2,-0.8 3.1,-2.7 4.7,-3.5 0.1,0.2 0.2,0.4 0.3,0.6 z m 2.3,2.6 c -0.4,2.4 0.8,4.8 0.2,6.6 -1.1,-0.4 -2.2,-1 -3.2,-1.6 1.6,-1.6 1.7,-4 2.5,-5.3 0.1,0 0.3,0.2 0.5,0.3 z m 2.8,1.4 c 0.3,0.1 0.5,0.2 0.9,0.2 0.6,2.8 2.6,4.1 2.7,5.8 -0.4,0 -0.9,0.1 -1.3,0.1 -0.8,0 -1.6,-0.1 -2.4,-0.2 0.8,-2.2 0.1,-4.1 0.1,-5.9 z m 8,-8 c -0.1,3.1 -2.6,5.6 -5.7,5.6 -2.7,0 -4.9,-1.8 -5.5,-4.2 3.6,-0.7 7.4,-1.2 11.2,-1.4 z m -3.4,-29.7 0.5,10.5 c 0,0.7 0.2,1.4 0.6,1.9 0.3,0.6 0.8,1 1.4,1.3 0.6,0.3 1.3,0.4 2,0.4 0.8,0 1.4,-0.2 2,-0.6 0.6,-0.3 1,-0.8 1.3,-1.4 0.3,-0.6 0.4,-1.2 0.4,-2 l -0.5,-10.5 3.3,-0.1 0.5,10.5 c 0.1,1.4 -0.2,2.6 -0.7,3.7 -0.5,1.1 -1.3,2 -2.4,2.6 -1.1,0.6 -2.3,1 -3.7,1.1 -1.4,0.1 -2.6,-0.2 -3.7,-0.7 -1.1,-0.5 -2,-1.3 -2.6,-2.4 -0.6,-1 -1,-2.2 -1.1,-3.6 L 126,13 Z m 11.9,29.7 c -2.2,0.1 -4.8,1 -5.8,1 0,-0.4 0.1,-0.7 0.1,-1.1 1,0 1.9,0 2.9,0 1,0 1.9,0 2.9,0 -0.1,0 -0.1,0.1 -0.1,0.1 z m 1.8,10 0.6,1.4 -1.4,0.5 c 0,0 0.7,2.1 0.9,3.5 -1.9,1.2 1.2,2.8 1.1,0.4 0.3,-0.2 2.6,-0.9 2.6,-0.9 v -1.1 l 1.1,-0.3 v 1.1 l -1.1,0.3 c 0,0 0.1,2 0.1,2.9 -2.1,0.9 0.6,3 0.9,0.7 0.3,0 3.3,-0.2 3.3,-0.2 l -0.1,-1.5 c 0,0 1.4,0 1.5,0 0.1,0 -4.2,5 -5.3,6.1 -2.3,-4 -7.2,-5.5 -7.4,-5.6 0.2,-0.3 1.5,-3.3 2.4,-5.3 0.5,-1.2 0.8,-2 0.8,-2 z m 7.1,-39.7 6.9,1 c 1.6,0.2 3,0.8 4.2,1.8 1.2,1 2.1,2.1 2.7,3.6 0.6,1.4 0.7,2.9 0.5,4.5 -0.2,1.6 -0.8,3 -1.8,4.2 -1,1.2 -2.1,2.1 -3.6,2.6 -1.4,0.6 -2.9,0.7 -4.5,0.5 l -6.9,-1 z m -16,41.8 c -1,0.6 -2.1,1 -3.2,1.4 -0.4,-2.3 -2.2,-3.8 -2.6,-5.3 0.2,0 0.5,-0.1 0.7,-0.1 1.3,1.8 4.1,2.1 5.1,4 z m 0,-7.7 c 0.1,-0.2 0.2,-0.4 0.3,-0.6 2,0 4.1,-1.1 6.4,-1.1 -0.2,1 -0.5,2 -1,3 -2.3,-1.4 -4.4,-0.8 -5.7,-1.3 z m 4.5,3.7 c -0.6,0.9 -1.4,1.8 -2.2,2.5 -1.4,-2.2 -3.3,-2.6 -4.6,-3.7 0.1,-0.1 0.5,-0.3 0.6,-0.4 1.9,1.2 4.7,0.6 6.2,1.6 z m -9,75.3 c 0,0 0.1,0 0.2,0 0,0 0,0 0,0 0.3,0.1 2.2,0.3 3.3,0.5 -0.4,1.4 -1.4,5.5 -1.8,8.7 0,-0.1 -0.1,-0.2 -0.1,-0.4 0,0.1 0,0.3 -0.1,0.4 -0.1,-0.5 -2.1,-5 -2.5,-5.4 0.1,-0.4 0.8,-3.5 1,-3.8 z m -2.7,-0.7 c 0.4,-0.2 2.9,-6.6 3.2,-7.4 -0.8,-0.2 -1.2,-0.4 -1.6,-0.5 -0.3,0.5 -3.8,6 -4.9,6.8 -0.9,-0.3 -2.1,-0.7 -3.3,-1.3 0.7,-0.2 11.2,-13.8 10.8,-24.7 0.5,1.5 4.1,9.9 4.1,9.9 0,0 -5.2,16.2 -5.4,17.7 -1.1,0 -2.3,-0.3 -2.9,-0.5 z m -6,5.9 c -0.4,-0.3 -2.1,-1.2 -2.3,-1.4 0.3,-0.3 0.6,-0.9 1,-1.4 0.3,-0.3 2.4,-0.2 3.4,0.2 -0.5,0.5 -1.6,2 -2.1,2.6 z m 4,-2.2 c 0.4,-0.4 2.9,-0.1 3.3,0.2 -0.8,1.1 -2.8,4.2 -3,5 -0.9,-0.5 -2,-1.4 -2.3,-1.7 0.2,-0.5 1.5,-3.1 2,-3.5 z m 12.1,-10.1 c -0.2,0.7 -0.6,7.4 -0.8,7.9 -0.6,0 -2.2,-0.2 -3.1,-0.3 0.9,-3.8 4.2,-14.3 4.2,-14.3 0,0 4.9,9.3 6.2,14.4 -0.6,0.1 -2.9,0.2 -3.2,0.2 0,-0.4 -1.3,-7.5 -1.2,-8 -0.9,0.1 -1.8,0.1 -2.1,0.1 z m 6.5,7.8 c 1.3,-0.2 3,-0.4 3.4,-0.5 0.4,0.8 1,4.1 1,4.5 -1,0.9 -2.9,4.5 -3.1,4.5 0.3,-2.3 -0.9,-7.7 -1.3,-8.5 z m 10.5,8.5 c -0.4,0 -2.3,0 -2.8,0 -0.1,-0.4 -1.4,-3.8 -2.2,-5.3 0.4,0 3,-0.3 3.5,0.9 0.3,0.9 1.4,3.6 1.5,4.4 z m 5.4,0 c -0.7,0 -2.5,0 -2.9,0 0,-0.3 -1.7,-4.2 -1.8,-4.5 0.8,-0.1 3.2,0.2 3.5,0.8 0.3,0.7 1.1,3.1 1.2,3.7 z M 169.9,48 c 1.5,0.7 2.8,1.2 2.5,3.4 -0.3,1.8 -1.9,7.7 -5.3,10.8 0.4,0.5 0.7,0.4 1.2,1.1 5.4,-3.5 7.3,-7.6 8.3,-10.9 1,0.9 2.3,2.1 1.6,3.7 -0.7,1.5 -3.8,6.9 -8,9.3 0.4,0.5 0.6,0.8 0.9,1.4 4.1,-1.4 9.5,-6.4 10.5,-8.8 0.5,0.9 1.9,2.3 0.7,3.8 -1.8,2.4 -5.6,5.6 -10,7.4 0.1,0.4 0.4,1.3 0.5,1.7 6.1,-1.6 10.1,-4.2 12.3,-6.2 0.7,1.7 0.9,2.7 -0.3,3.6 -1.1,0.9 -7.4,4.6 -11.6,5.2 0.1,0.6 0.1,1.3 0.1,1.7 5.3,0.1 11.3,-2.5 13.4,-3.9 0.3,0.6 0.5,3 -0.6,3.5 -1.1,0.5 -6.9,3.3 -13,3.1 0,0.2 -0.3,1.5 -0.4,1.8 4.8,1.2 12.1,-0.3 14.2,-1.1 -0.1,1.6 0,2.8 -2,3.4 -2.1,0.6 -8.6,1.5 -13.1,0.3 -0.2,0.4 -0.6,1.1 -0.9,1.5 2.3,1 7.8,2.9 14,1.9 -0.4,1.1 -0.9,2.9 -2.7,3 -4,0.3 -10.3,-1 -13,-2.6 -0.4,0.4 -0.8,0.9 -1.2,1.2 1.7,1.4 6.6,4.8 13.4,5.1 -0.5,1 -1.7,2.8 -3.7,2.4 -4.2,-0.9 -8.6,-2.8 -12,-5.7 -0.8,0.5 -1.1,0.7 -1.5,0.9 0.7,0.9 5,6.2 12,8.4 -1.8,1.3 -3.2,1.7 -5,0.8 -2.8,-1.4 -6.8,-4.4 -9.7,-8.2 -0.9,0.3 -1.2,0.3 -1.7,0.4 0.8,1.7 3.6,6.5 7.8,9.8 -2.7,0.6 -3.9,0.1 -4.9,-0.9 -2.5,-2.6 -5.3,-7.1 -5.7,-8.6 -0.9,0 -1.3,0 -2,-0.1 0.7,4 2.9,8.1 4.6,10.5 -1.6,0.3 -3.1,0.3 -3.4,0 -1.6,-2.2 -3.6,-6.7 -4,-10.5 -1,0 -1.6,0.3 -1.8,0.3 -0.1,5.1 1.5,10.4 2.9,13 -0.9,0.7 -1.4,1.4 -2,2.2 -1.5,-2.3 -3.6,-8.1 -3.6,-13.9 -6.4,6 2.8,23.8 9.3,29.6 -1.6,0.6 -2.4,1.1 -3.5,1.3 -1.1,-0.5 -4.8,-6.4 -5.2,-6.8 -0.9,0.2 -1.2,0.2 -1.8,0.4 0.4,0.9 3.1,6.5 3.9,7.2 -0.5,0.3 -2.6,0.7 -3.5,0.8 -6.4,-19.3 -20.8,-33.5 -9.5,-47 0.1,-0.1 0.2,-0.2 0.3,-0.4 -0.1,0 -0.1,0 -0.2,0 -1.2,-0.3 -4.1,-1.1 -4.9,-1.4 0.8,-0.3 4,-6.7 3.6,-9.1 -0.1,-0.7 -2.5,-4.5 -4.5,-3.2 -0.1,0.1 0.5,-3.2 2.5,-3.3 1.2,-0.1 2.2,0.9 2.9,1 0.6,0.1 0.5,-0.3 0.5,-0.7 0.2,-0.1 0.2,0 0.4,0 9.6,2.7 8.1,10.7 9,13.6 -3,0 -4.3,1.2 -5,2.2 0.1,0.3 0,0.6 0,0.6 6.9,-1.7 8.4,3.9 14.5,3.4 7.4,-0.6 8.8,-8 4.6,-11.3 -3,-2.4 -3.5,-6 -0.7,-7.1 6.9,-2.6 9.3,-8.9 9.5,-15 z m 3.8,-30.6 3.1,0.9 -5,16.6 -3.1,-0.9 z m 11.7,4 3,1.2 -6.6,16 -3,-1.2 z m 41.2,30.8 2.3,-2.1 8.9,10 -2.3,2.1 -3.3,-3.8 -10.6,9.4 -2.2,-2.4 L 230,56 Z m 19,19.2 -10.4,15.8 -1.3,-2 c -0.2,-0.3 -0.3,-0.7 -0.3,-1 0,-0.4 0.1,-0.7 0.3,-1.1 l 1.4,-2.2 -4.3,-6.6 -2.6,0.4 c -0.4,0.1 -0.8,0 -1.1,-0.1 -0.3,-0.1 -0.6,-0.4 -0.8,-0.7 l -1.3,-2 18.7,-3.1 z m 8.1,14.9 -9.7,4.1 c -0.7,0.3 -1.2,0.7 -1.6,1.2 -0.4,0.5 -0.6,1.1 -0.7,1.8 -0.1,0.7 0,1.3 0.3,2 0.3,0.7 0.7,1.3 1.2,1.7 0.5,0.4 1.1,0.7 1.8,0.7 0.7,0.1 1.3,0 2,-0.3 l 9.7,-4.1 1.3,3 -9.7,4.1 c -1.3,0.5 -2.5,0.7 -3.7,0.6 -1.2,-0.1 -2.3,-0.6 -3.3,-1.3 -1,-0.8 -1.7,-1.8 -2.3,-3.1 -0.5,-1.3 -0.8,-2.5 -0.6,-3.8 0.1,-1.2 0.6,-2.3 1.3,-3.3 0.8,-1 1.8,-1.7 3,-2.2 l 9.7,-4.1 z m 8.5,25.6 c 0.2,1 0.2,2 -0.1,2.9 -0.3,0.9 -0.8,1.7 -1.5,2.4 -0.7,0.7 -1.6,1.1 -2.6,1.3 -0.8,0.2 -1.6,0.1 -2.4,-0.1 -0.8,-0.3 -1.4,-0.6 -1.9,-1.2 -0.5,-0.5 -0.9,-1.1 -1,-1.7 l -0.1,-0.4 v 0 c 0.1,0.4 0.1,0.8 0,1.1 -0.1,0.3 -0.3,0.6 -0.5,0.9 l -5.2,5.8 -0.6,-2.6 c -0.1,-0.4 -0.1,-0.7 0,-1 0.1,-0.3 0.3,-0.6 0.6,-1 l 4.5,-5 -0.5,-2.2 -6.3,1.4 -0.7,-3.2 16.9,-3.7 z m 2.6,18.1 -17.3,1.4 -0.3,-3.2 17.3,-1.4 z M 138.8,0 C 62.1,0 0,62.2 0,138.8 c 0,76.6 62.1,138.8 138.8,138.8 76.6,0 138.8,-62.2 138.8,-138.8 C 277.6,62.2 215.4,0 138.8,0 Z"
   inkscape:connector-curvature="0"
   style="clip-rule:evenodd;fill:#d8223a;fill-rule:evenodd" />
	</g>
</g>
</svg>